<svg width="13" height="13" viewBox="0 0 13 13" fill="none" xmlns="http://www.w3.org/2000/svg">
<path d="M5.55006 1.38841C5.85157 0.471634 7.14843 0.471636 7.44994 1.38841L8.32212 4.04035C8.42134 4.34204 8.65796 4.57866 8.95964 4.67788L11.6116 5.55006C12.5284 5.85157 12.5284 7.14843 11.6116 7.44994L8.95964 8.32212C8.65796 8.42134 8.42134 8.65796 8.32212 8.95964L7.44994 11.6116C7.14843 12.5284 5.85157 12.5284 5.55006 11.6116L4.67788 8.95964C4.57866 8.65796 4.34204 8.42134 4.04036 8.32212L1.38841 7.44994C0.471634 7.14843 0.471636 5.85156 1.38841 5.55006L4.04036 4.67788C4.34204 4.57866 4.57866 4.34204 4.67788 4.04035L5.55006 1.38841Z" fill="white"/>
</svg>
